OpenSim_Sub01_EMGStiffKnee_GRF.mot
version=1
nRows=57
nColumns=19
inDegrees=no
endheader
time	lFx	lFy	lFz	lCOPx	lCOPy	lCOPz	rFx	rFy	rFz	rCOPx	rCOPy	rCOPz	lMx	lMy	lMz	rMx	rMy	rMz
41.75000000	-18.22007026	341.46365007	6.55552717	1.14083867	0	-0.64274081	90.02998752	529.43400502	-19.60416375	0.76531420	0	-0.42474157	0	2.69647441	0	0	2.74531008	-0.00000000
41.76000000	-25.36885370	422.00165413	8.73148116	1.12249875	0	-0.63609005	90.30263507	499.05322557	-14.94996436	0.75846056	0	-0.42388524	0	4.80439578	0	0	2.33037791	0
41.77000000	-31.20390907	479.51612544	12.00549616	1.10606368	0	-0.62915557	88.61882750	460.94422610	-10.54101070	0.75187418	0	-0.42278246	0	5.91569603	0	0	1.84202427	-0.00000000
41.78000000	-34.41270815	511.82808394	16.87214373	1.09618154	0	-0.62575610	84.42008279	414.96318557	-6.80979966	0.74569535	0	-0.42164886	0	5.79358934	0	0	1.34270234	0
41.79000000	-35.24543161	525.31075263	23.46761743	1.08975446	0	-0.62536231	77.12097757	361.93930379	-3.96356334	0.74053216	0	-0.42084431	0	4.63438650	0	0	0.88844632	0
41.80000000	-34.63282199	530.36736516	31.29488089	1.08467460	0	-0.62653915	66.47395177	304.15043274	-2.17830026	0.73798910	0	-0.42091304	0	2.85145424	0	0	0.50791124	0
41.81000000	-34.20402956	535.34400101	38.94259550	1.08089599	0	-0.62817704	52.86230488	245.14589336	-1.52452954	0.74021643	0	-0.42280567	0	1.02303722	0	0	0.19745760	0
41.82000000	-35.02033626	543.76617523	44.81573506	1.07868093	0	-0.62962392	37.41951663	189.03296511	-1.72273876	0.74824615	0	-0.42706339	0	-0.30260589	0	0	-0.03695967	0.00000000
41.83000000	-36.45505665	554.82472264	48.04162818	1.07757431	0	-0.63053162	21.54590288	139.49977103	-2.29670566	0.75788727	0	-0.43121863	0	-0.88442721	0	0	-0.16762038	0
41.84000000	-37.19518660	567.51121882	48.67796416	1.07669242	0	-0.63085624	6.80874461	98.96811513	-2.58965118	0.75270198	0	-0.42598540	0	-0.72972753	0	0	-0.22403163	-0.00000000
41.85000000	-36.63150898	582.08302465	47.82567946	1.07521155	0	-0.63078394	-4.99771167	67.82325257	-2.21277698	0.69815902	0	-0.39253375	0	-0.12561286	0	0	-0.27109745	-0.00000000
41.86000000	-34.39046340	598.02452085	46.84873977	1.07261733	0	-0.63050519	-12.10963853	44.23822586	-1.34769710	0.55162514	0	-0.30873814	0	0.57320830	0	0	-0.26711293	0
41.87000000	-31.01495945	613.65622084	46.68562269	1.06886247	0	-0.63018860	-13.55347012	25.98121577	-0.39607889	0.31800396	0	-0.17767863	0	1.09638095	0	0	-0.19418527	-0.00000000
41.88000000	-27.24034791	626.89689260	47.70279663	1.06424582	0	-0.62994129	-9.89665879	11.94129930	0.11330898	0.11329148	0	-0.06333023	0	1.33040960	0	0	-0.08971303	0.00000000
41.89000000	-23.73113006	636.02723834	49.77136682	1.05938042	0	-0.62980136	-4.57174398	2.78515351	0.19468327	0.00752638	0	-0.00423005	0	1.22956633	0	0	-0.02115957	0
41.90000000	-20.83128137	639.95463876	52.38090371	1.05464741	0	-0.62974487	-1.00810555	-1.17513567	0.13791163	-0.02380594	0	0.01328920	0	0.82846513	0	0	0.00659008	-0.00000000
41.91000000	-18.41548225	638.48909621	54.87149007	1.05020168	0	-0.62970142	0.42513349	-1.84996459	0.09803434	-0.02118882	0	0.01183579	0	0.22917642	0	0	0.01089637	0
41.92000000	-16.32601438	632.85408813	56.79204981	1.04608350	0	-0.62957907	0.60308574	-1.31104861	0.09020363	-0.01081462	0	0.00604313	0	-0.44161701	0	0	0.00705202	-0.00000000
41.93000000	-14.67927153	625.18285848	57.79611883	1.04231327	0	-0.62934977	0.35999713	-0.73870493	0.03450710	-0.00313607	0	0.00175357	0	-1.01009300	0	0	0.00281517	-0.00000000
41.94000000	-13.60343392	617.46632821	57.93890894	1.03868338	0	-0.62901834	0.15032969	-0.44777702	-0.02305004	0.00032221	0	-0.00017912	0	-1.35720683	0	0	0.00041119	0.00000000
41.95000000	-12.90501281	610.87937146	57.53369749	1.03493415	0	-0.62862542	0.08418735	-0.31263842	-0.03123996	0.00108698	0	-0.00060695	0	-1.51174499	0	0	-0.00041072	-0.00000000
41.96000000	-12.31912298	605.74361643	56.82711200	1.03074870	0	-0.62818783	0.07829264	-0.24335560	0.01025774	0.00079188	0	-0.00044238	0	-1.55551840	0	0	-0.00043976	-0.00000000
41.97000000	-11.70054727	602.03884124	55.97917761	1.02617001	0	-0.62776757	0.07858339	-0.21230547	0.04067701	0.00035214	0	-0.00019680	0	-1.52133408	0	0	-0.00024643	-0.00000000
41.98000000	-11.12061577	599.55975901	55.26387307	1.02128689	0	-0.62740274	0.06449551	-0.26002083	0.03491021	0.00007523	0	-0.00004209	0	-1.50271434	0	0	-0.00008282	-0.00000000
41.99000000	-10.57955019	598.18835144	54.86217859	1.01605418	0	-0.62708228	0.06144256	-0.32331191	0.01702379	-0.00003217	0	0.00001794	0	-1.56297298	0	0	-0.00000182	-0.00000000
42	-10.01777215	598.06360791	54.74937951	1.01047364	0	-0.62679514	0.06741784	-0.35643427	-0.00128874	-0.00004580	0	0.00002558	0	-1.69114152	0	0	0.00002037	0.00000000
42.01000000	-9.41716020	599.36819562	54.73432945	1.00460367	0	-0.62650764	0.05893471	-0.44471251	0.02494062	-0.00002847	0	0.00001591	0	-1.84289608	0	0	0.00001691	0.00000000
42.02000000	-8.98268253	601.97963136	54.60108833	0.99875146	0	-0.62624491	0.04802612	-0.58495462	0.05838805	-0.00001093	0	0.00000610	0	-1.98206650	0	0	0.00000828	0.00000000
42.03000000	-8.74680642	605.05924852	54.12218946	0.99290889	0	-0.62599596	0.03231150	-0.67100330	0.06140042	-0.00000138	0	0.00000075	0	-2.05415937	0	0	0.00000224	0.00000000
42.04000000	-8.45451345	607.70692400	53.30379466	0.98697252	0	-0.62576563	0.01819166	-0.67552242	0.06559268	0.00000171	0	-0.00000098	0	-2.04214318	0	0	-0.00000034	-0.00000000
42.05000000	-7.80725245	609.45911891	52.34769774	0.98072228	0	-0.62558241	0.03702468	-0.68702048	0.06755286	0.00000184	0	-0.00000102	0	-1.96587123	0	0	-0.00000085	-0.00000000
42.06000000	-6.65027374	610.21715454	51.53942692	0.97413615	0	-0.62544339	0.06818860	-0.65740962	0.05095696	0.00000152	0	-0.00000075	0	-1.91414707	0	0	-0.00000067	0.00000000
42.07000000	-4.95638397	610.26861616	51.04951954	0.96722508	0	-0.62530527	0.07275980	-0.56830089	0.09588600	0.00000191	0	-0.00000078	0	-1.91772496	0	0	-0.00000060	-0.00000000
42.08000000	-2.68083190	610.18144970	50.84897195	0.96010203	0	-0.62518169	0.06623714	-0.49232547	0.14389421	0.00000284	0	-0.00000109	0	-1.95335640	0	0	-0.00000091	0.00000000
42.09000000	0.06914177	610.34938249	50.82268167	0.95285374	0	-0.62509242	0.07118122	-0.47710575	0.12597566	0.00000256	0	-0.00000100	0	-2.04731674	0	0	-0.00000132	0.00000000
42.10000000	3.03719765	610.89857340	50.79412326	0.94566076	0	-0.62502402	0.08217832	-0.53903906	0.10235319	-0.00000276	0	0.00000096	0	-2.16422839	0	0	-0.00000085	-0.00000000
42.11000000	5.87421890	611.78476679	50.68404030	0.93879409	0	-0.62497902	0.09418474	-0.59840074	0.08086473	-0.00001831	0	0.00000681	0	-2.27577991	0	0	0.00000244	0.00000000
42.12000000	8.40851346	612.94613012	50.55979333	0.93231024	0	-0.62497118	0.12423137	-0.60705010	0.04373300	-0.00004571	0	0.00001732	0	-2.39610580	0	0	0.00001078	-0.00000000
42.13000000	10.61875385	614.77169191	50.52539567	0.92610872	0	-0.62506242	0.14522474	-0.58847305	0.01658403	-0.00007047	0	0.00002719	0	-2.51966658	0	0	0.00002377	0.00000000
42.14000000	12.57841155	617.78571910	50.62713108	0.92004339	0	-0.62525864	0.13228888	-0.53651283	0.05378960	-0.00004227	0	0.00001752	0	-2.60364947	0	0	0.00003186	-0.00000000
42.15000000	14.25423692	621.84197202	50.93427097	0.91420814	0	-0.62550401	0.00536360	-0.27683728	0.05312904	0.00013793	0	-0.00004952	0	-2.69938983	0	0	0.00000732	0.00000000
42.16000000	15.62665909	625.65356446	51.26645570	0.90876307	0	-0.62571437	-0.34241221	0.33634546	-0.01106224	0.00058218	0	-0.00021789	0	-2.80334568	0	0	-0.00009841	-0.00000000
42.17000000	16.62108914	627.71230987	51.40860392	0.90385378	0	-0.62584677	-0.90520861	1.29109670	-0.05090403	0.00125782	0	-0.00047874	0	-2.89036410	0	0	-0.00032877	-0.00000000
42.18000000	17.23326431	627.20015883	51.21682759	0.89941656	0	-0.62588252	-1.34016252	2.01091500	-0.10998136	0.00163995	0	-0.00063819	0	-2.97852092	0	0	-0.00063253	0.00000000
42.19000000	17.45241361	624.24286725	50.57608486	0.89529675	0	-0.62581446	-1.43188159	2.05027809	-0.11784943	0.00024686	0	-0.00013681	0	-3.05444755	0	0	-0.00068814	-0.00000000
42.20000000	17.41110018	619.40583284	49.56641427	0.89131957	0	-0.62569257	-1.30263491	1.45849320	-0.03291863	-0.00546338	0	0.00200148	0	-3.14158181	0	0	0.00029353	-0.00000000
42.21000000	17.43285955	612.96760959	48.33197830	0.88729668	0	-0.62561381	-1.37434275	0.37437523	0.03388191	-0.01764780	0	0.00664101	0	-3.25364817	0	0	0.00350723	0.00000000
42.22000000	17.65173984	604.96848837	47.01756377	0.88322391	0	-0.62565790	-2.29803512	-0.79417715	0.06907024	-0.03326570	0	0.01272457	0	-3.39100992	0	0	0.00961508	-0.00000000
42.23000000	17.95505185	595.31690918	45.56543379	0.87923769	0	-0.62580303	-4.55520582	-1.04926184	0.10181281	-0.03483685	0	0.01374081	0	-3.51441599	0	0	0.01611222	-0.00000000
42.24000000	18.11079790	583.82357944	43.74251999	0.87534436	0	-0.62601267	-7.76628990	2.14591381	-0.03772782	0.01957843	0	-0.00621881	0	-3.58432781	0	0	0.01282584	-0.00000000
42.25000000	18.15795843	569.91958947	41.26855521	0.87136757	0	-0.62628283	-9.89242196	14.17973431	-0.42148021	0.19198492	0	-0.07112603	0	-3.53189441	0	0	-0.02186313	-0.00000000
42.26000000	18.37874660	552.88953708	37.96663949	0.86711443	0	-0.62666843	-7.48747060	43.22842446	-0.95856323	0.51301644	0	-0.19398376	0	-3.29373091	0	0	-0.11551041	-0.00000000
42.27000000	19.19801962	532.18042077	33.81458059	0.86232749	0	-0.62711326	0.89433776	96.56567805	-1.56282472	0.86223307	0	-0.33064942	0	-2.86347177	0	0	-0.26265156	-0.00000000
42.28000000	20.70539747	507.08325834	28.86581983	0.85671679	0	-0.62742583	8.06104732	172.59748062	-2.20649813	1.07255244	0	-0.41537165	0	-2.29507729	0	0	-0.45245779	0
42.29000000	22.71055416	476.23875778	23.40822973	0.85020250	0	-0.62741785	6.51406657	260.19324233	-2.41264463	1.14674313	0	-0.44737088	0	-1.68135104	0	0	-0.63102235	0
42.30000000	24.57242503	438.32457760	17.89250915	0.84323776	0	-0.62709963	-3.05618974	346.79913754	-2.49498956	1.15107269	0	-0.45045457	0	-1.15573747	0	0	-0.81713554	0
42.31000000	25.52021077	393.33808026	12.64403244	0.83689297	0	-0.62688947	-17.16121433	422.82665557	-3.53583473	1.13569310	0	-0.44423265	0	-0.80385227	0	0	-1.07633664	0.00000000
